name Precision Landing13_filtered_grf.mot
datacolumns 37
datarows 14
range 1.864500 1.871000
endheader
time	1_ground_force_vx	1_ground_force_vy	1_ground_force_vz	1_ground_force_px	1_ground_force_py	1_ground_force_pz	1_ground_torque_x	1_ground_torque_y	1_ground_torque_z	2_ground_force_vx	2_ground_force_vy	2_ground_force_vz	2_ground_force_px	2_ground_force_py	2_ground_force_pz	2_ground_torque_x	2_ground_torque_y	2_ground_torque_z	3_ground_force_vx	3_ground_force_vy	3_ground_force_vz	3_ground_force_px	3_ground_force_py	3_ground_force_pz	3_ground_torque_x	3_ground_torque_y	3_ground_torque_z	4_ground_force_vx	4_ground_force_vy	4_ground_force_vz	4_ground_force_px	4_ground_force_py	4_ground_force_pz	4_ground_torque_x	4_ground_torque_y	4_ground_torque_z
            1.864500	          -23.437876	          151.996123	           10.053429	            0.126862	            0.000000	            0.276874	           -0.095447	            0.618979	            0.040941	           37.943105	          271.700774	           10.435173	           -0.171523	            0.000000	            0.316241	            0.577133	            4.132703	            0.158724	            3.900282	           -0.069719	           -0.496938	            0.353261	            1.255182	            1.891355	            0.001772	            0.027614	            0.035981	          -16.310280	            0.753809	           -2.639915	           -0.289230	            1.264860	            1.901280	            0.009845	           -0.000455	            0.001593
            1.865000	          -23.446688	          151.608959	           10.001059	            0.126904	            0.000000	            0.276942	           -0.094468	            0.610840	            0.040295	           37.807106	          270.795027	           10.402795	           -0.171501	            0.000000	            0.316281	            0.574837	            4.117293	            0.158169	            3.906954	           -0.052410	           -0.497590	            0.353259	            1.255183	            1.891358	            0.001570	            0.027223	            0.035970	          -16.317593	            0.763475	           -2.642145	           -0.289229	            1.264859	            1.901284	            0.009993	           -0.000468	            0.001618
            1.865500	          -23.455101	          151.224200	            9.941456	            0.126948	            0.000000	            0.277014	           -0.093476	            0.602676	            0.039620	           37.669705	          269.892628	           10.358738	           -0.171478	            0.000000	            0.316324	            0.572268	            4.100135	            0.157367	            3.913745	           -0.035258	           -0.498020	            0.353257	            1.255183	            1.891361	            0.001382	            0.026765	            0.035991	          -16.325228	            0.772889	           -2.644414	           -0.289226	            1.264859	            1.901286	            0.010134	           -0.000480	            0.001642
            1.866000	          -23.463143	          150.841989	            9.874749	            0.126992	            0.000000	            0.277088	           -0.092472	            0.594494	            0.038918	           37.531099	          268.993696	           10.302841	           -0.171454	            0.000000	            0.316369	            0.569428	            4.081215	            0.156316	            3.920637	           -0.018381	           -0.498189	            0.353255	            1.255184	            1.891364	            0.001209	            0.026239	            0.036042	          -16.333182	            0.781917	           -2.646621	           -0.289223	            1.264858	            1.901289	            0.010269	           -0.000492	            0.001664
            1.866500	          -23.470848	          150.462478	            9.801089	            0.127038	            0.000000	            0.277165	           -0.091458	            0.586303	            0.038192	           37.391475	          268.098378	           10.234956	           -0.171429	            0.000000	            0.316418	            0.566318	            4.060521	            0.155015	            3.927612	           -0.001899	           -0.498075	            0.353252	            1.255185	            1.891367	            0.001049	            0.025646	            0.036123	          -16.341442	            0.790445	           -2.648740	           -0.289221	            1.264858	            1.901292	            0.010396	           -0.000503	            0.001685
            1.867000	          -23.478256	          150.085833	            9.720650	            0.127086	            0.000000	            0.277244	           -0.090434	            0.578106	            0.037442	           37.251015	          267.206843	           10.154957	           -0.171403	            0.000000	            0.316469	            0.562939	            4.038044	            0.153462	            3.934651	            0.014069	           -0.497657	            0.353250	            1.255185	            1.891370	            0.000903	            0.024988	            0.036235	          -16.350003	            0.798363	           -2.650745	           -0.289218	            1.264857	            1.901295	            0.010516	           -0.000514	            0.001705
            1.867500	          -23.485410	          149.712227	            9.633625	            0.127134	            0.000000	            0.277326	           -0.089402	            0.569911	            0.036672	           37.109891	          266.319284	           10.062739	           -0.171376	            0.000000	            0.316523	            0.559294	            4.013776	            0.151659	            3.941734	            0.029410	           -0.496924	            0.353248	            1.255186	            1.891374	            0.000772	            0.024269	            0.036375	          -16.358863	            0.805565	           -2.652614	           -0.289216	            1.264857	            1.901298	            0.010628	           -0.000523	            0.001723
            1.868000	          -23.492359	          149.341837	            9.540229	            0.127184	            0.000000	            0.277411	           -0.088362	            0.561722	            0.035884	           36.968263	          265.435913	            9.958221	           -0.171349	            0.000000	            0.316581	            0.555384	            3.987713	            0.149605	            3.948838	            0.044012	           -0.495883	            0.353246	            1.255187	            1.891377	            0.000654	            0.023490	            0.036545	          -16.368019	            0.811956	           -2.654372	           -0.289213	            1.264857	            1.901300	            0.010731	           -0.000532	            0.001740
            1.868500	          -23.499153	          148.974849	            9.440693	            0.127236	            0.000000	            0.277498	           -0.087316	            0.553546	            0.035079	           36.826277	          264.556960	            9.841350	           -0.171322	            0.000000	            0.316641	            0.551211	            3.959855	            0.147304	            3.955941	            0.057775	           -0.494517	            0.353244	            1.255187	            1.891381	            0.000550	            0.022656	            0.036742	          -16.377486	            0.817437	           -2.655961	           -0.289210	            1.264857	            1.901303	            0.010826	           -0.000540	            0.001756
            1.869000	          -23.505846	          148.611449	            9.335265	            0.127288	            0.000000	            0.277588	           -0.086264	            0.545386	            0.034259	           36.684065	          263.682668	            9.712102	           -0.171295	            0.000000	            0.316705	            0.546778	            3.930202	            0.144759	            3.963022	            0.070601	           -0.492832	            0.353241	            1.255187	            1.891384	            0.000459	            0.021771	            0.036967	          -16.387275	            0.821920	           -2.657369	           -0.289206	            1.264857	            1.901306	            0.010911	           -0.000547	            0.001769
            1.869500	          -23.512492	          148.251828	            9.224209	            0.127343	            0.000000	            0.277680	           -0.085207	            0.537250	            0.033428	           36.541742	          262.813295	            9.570487	           -0.171267	            0.000000	            0.316772	            0.542087	            3.898764	            0.141976	            3.970057	            0.082404	           -0.490840	            0.353239	            1.255188	            1.891388	            0.000381	            0.020841	            0.037219	          -16.397401	            0.825328	           -2.658587	           -0.289203	            1.264857	            1.901308	            0.010987	           -0.000553	            0.001781
            1.870000	          -23.519147	          147.896173	            9.107799	            0.127398	            0.000000	            0.277774	           -0.084147	            0.529142	            0.032586	           36.399405	          261.949106	            9.416549	           -0.171241	            0.000000	            0.316843	            0.537141	            3.865549	            0.138959	            3.977024	            0.093103	           -0.488560	            0.353237	            1.255188	            1.891391	            0.000318	            0.019870	            0.037497	          -16.407881	            0.827591	           -2.659609	           -0.289200	            1.264857	            1.901311	            0.011054	           -0.000558	            0.001792
            1.870500	          -23.525866	          147.544674	            8.986326	            0.127455	            0.000000	            0.277870	           -0.083084	            0.521067	            0.031736	           36.257135	          261.090371	            9.250372	           -0.171214	            0.000000	            0.316916	            0.531945	            3.830574	            0.135716	            3.983900	            0.102629	           -0.486039	            0.353234	            1.255188	            1.891395	            0.000267	            0.018866	            0.037801	          -16.418731	            0.828648	           -2.660450	           -0.289197	            1.264857	            1.901313	            0.011111	           -0.000561	            0.001800
            1.871000	          -23.532704	          147.197515	            8.860086	            0.127513	            0.000000	            0.277968	           -0.082019	            0.513031	            0.030880	           36.114989	          260.237365	            9.072080	           -0.171188	            0.000000	            0.316994	            0.526501	            3.793858	            0.132257	            3.990668	            0.110923	           -0.483284	            0.353232	            1.255189	            1.891398	            0.000231	            0.017835	            0.038129	          -16.429976	            0.828454	           -2.661094	           -0.289194	            1.264857	            1.901315	            0.011158	           -0.000563	            0.001807
